<svg xmlns="http://www.w3.org/2000/svg" viewBox="0 0 48 48">
  <defs>
    <linearGradient id="g" x1="8" y1="8" x2="40" y2="40" gradientUnits="userSpaceOnUse">
      <stop offset="0" stop-color="#67e8f9"/>
      <stop offset="0.52" stop-color="#38bdf8"/>
      <stop offset="1" stop-color="#2563eb"/>
    </linearGradient>
  </defs>
  <rect width="48" height="48" rx="12" fill="#080b10"/>
  <rect x="1" y="1" width="46" height="46" rx="11" fill="none" stroke="#164e63" stroke-width="1.5"/>
  <path d="M15 8.5v20.2c0 5.2-2.8 8.3-7 8.3" fill="none" stroke="url(#g)" stroke-width="4.2" stroke-linecap="round" stroke-linejoin="round"/>
  <path d="M34 10.5c-2.1-1.8-4.6-2.7-7.3-2.7-4.3 0-7.2 2.2-7.2 5.5 0 3.1 2.1 4.7 6.7 6.1 5.2 1.6 7.5 3.4 7.5 7.1 0 4.4-3.6 7.2-8.7 7.2-3.3 0-6.4-1.1-8.7-3.2" fill="none" stroke="url(#g)" stroke-width="4.2" stroke-linecap="round" stroke-linejoin="round"/>
  <path d="M15 8.5h8" fill="none" stroke="#67e8f9" stroke-width="4.2" stroke-linecap="round"/>
</svg>
